<svg id="Calque_1" data-name="Calque 1" xmlns="http://www.w3.org/2000/svg" viewBox="0 0 503.92 503.92"><defs><style>.cls-1{fill:none;}.cls-2{fill:#d3bd26;}</style></defs><title>Gold</title><g id="Groupe_4" data-name="Groupe 4"><g id="Tracé_212" data-name="Tracé 212"><path class="cls-1" d="M226.76,151.17c125.25,0,226.76,79,226.76,176.38S352,503.92,226.76,503.92,0,425,0,327.55,101.51,151.17,226.76,151.17Z"/><path class="cls-2" d="M226.76,201.57c-49.42,0-95.38,14.57-129.41,41-30.28,23.55-47,53.72-47,84.94s16.68,61.38,47,84.93c34,26.47,80,41,129.41,41s95.38-14.57,129.41-41c30.28-23.55,47-53.72,47-84.93s-16.68-61.39-47-84.94c-34-26.47-80-41-129.41-41m0-50.4c125.24,0,226.76,79,226.76,176.38S352,503.92,226.76,503.92,0,425,0,327.55,101.52,151.17,226.76,151.17Z"/></g><g id="Tracé_213" data-name="Tracé 213"><path class="cls-2" d="M277.15,327.55c-55,0-106.44-16.47-144.87-46.36-36.56-28.43-56.69-65.66-56.69-104.82S95.72,100,132.28,71.55C170.71,41.66,222.16,25.2,277.15,25.2S383.6,41.66,422,71.55c36.56,28.43,56.69,65.66,56.69,104.82S458.59,252.76,422,281.19C383.6,311.08,332.15,327.55,277.15,327.55Z"/><path class="cls-2" d="M277.15,50.39c-49.42,0-95.38,14.58-129.4,41-30.29,23.56-47,53.72-47,84.94s16.68,61.38,47,84.94c34,26.46,80,41,129.4,41s95.38-14.58,129.41-41c30.29-23.56,47-53.72,47-84.94s-16.67-61.38-47-84.94c-34-26.46-80-41-129.41-41m0-50.39C402.39,0,503.92,79,503.92,176.37S402.39,352.74,277.15,352.74s-226.76-79-226.76-176.37S151.92,0,277.15,0Z"/></g></g></svg>